<svg width="14" height="14" viewBox="0 0 14 14" fill="grey" xmlns="http://www.w3.org/2000/svg">
<path fill="grey" fill-rule="evenodd" clip-rule="evenodd" d="M13.4167 7C13.4167 10.5438 10.5438 13.4167 7 13.4167C3.45617 13.4167 0.583333 10.5438 0.583333 7C0.583333 3.45617 3.45617 0.583333 7 0.583333C10.5438 0.583333 13.4167 3.45617 13.4167 7ZM14 7C14 10.866 10.866 14 7 14C3.13401 14 0 10.866 0 7C0 3.13401 3.13401 0 7 0C10.866 0 14 3.13401 14 7ZM6.7085 10.5V7.29165H3.5V6.70831H6.7085V3.5H7.29183V6.70831H10.5V7.29165H7.29183V10.5H6.7085Z"/>
</svg>
